FILE "Battle Fantasy (1994)(Micronet)(JP).img" BINARY
  TRACK 01 MODE1/2352
    INDEX 01 00:00:00
  TRACK 02 AUDIO
    PREGAP 00:02:00
    ISRC GAJPN9100001
    INDEX 01 02:01:66
  TRACK 03 AUDIO
    ISRC GAJPN9100002
    INDEX 00 05:07:53
    INDEX 01 05:09:52
  TRACK 04 AUDIO
    ISRC GAJPN9100003
    INDEX 00 06:55:10
    INDEX 01 06:57:09
  TRACK 05 AUDIO
    ISRC GAJPN9100004
    INDEX 00 08:59:05
    INDEX 01 09:01:04
  TRACK 06 AUDIO
    ISRC GAJPN9100005
    INDEX 00 10:59:04
    INDEX 01 11:01:03
  TRACK 07 AUDIO
    ISRC GAJPN9100006
    INDEX 00 12:08:15
    INDEX 01 12:10:14
  TRACK 08 AUDIO
    ISRC GAJPN9100007
    INDEX 00 13:18:52
    INDEX 01 13:20:51
  TRACK 09 AUDIO
    ISRC GAJPN9100008
    INDEX 00 14:23:03
    INDEX 01 14:25:02
  TRACK 10 AUDIO
    ISRC GAJPN9100009
    INDEX 00 15:41:03
    INDEX 01 15:43:02
  TRACK 11 AUDIO
    ISRC GAJPN9100010
    INDEX 00 16:51:04
    INDEX 01 16:53:03
  TRACK 12 AUDIO
    ISRC GAJPN9100011
    INDEX 00 18:46:21
    INDEX 01 18:48:20
  TRACK 13 AUDIO
    ISRC GAJPN9100012
    INDEX 00 19:56:70
    INDEX 01 19:58:69
  TRACK 14 AUDIO
    ISRC GAJPN9100013
    INDEX 00 21:32:42
    INDEX 01 21:34:41
  TRACK 15 AUDIO
    ISRC GAJPN9100014
    INDEX 00 23:36:45
    INDEX 01 23:38:44
  TRACK 16 AUDIO
    ISRC GAJPN9100015
    INDEX 00 25:11:10
    INDEX 01 25:13:09
  TRACK 17 AUDIO
    ISRC GAJPN9100016
    INDEX 00 26:24:07
    INDEX 01 26:26:06
  TRACK 18 AUDIO
    ISRC GAJPN9100017
    INDEX 00 27:40:65
    INDEX 01 27:42:64
  TRACK 19 AUDIO
    ISRC GAJPN9100018
    INDEX 00 29:14:65
    INDEX 01 29:16:64
  TRACK 20 AUDIO
    ISRC GAJPN9100019
    INDEX 00 30:58:62
    INDEX 01 31:00:61
  TRACK 21 AUDIO
    ISRC GAJPN9100020
    INDEX 00 32:24:62
    INDEX 01 32:26:61
  TRACK 22 AUDIO
    ISRC GAJPN9100021
    INDEX 00 34:00:62
    INDEX 01 34:02:61
  TRACK 23 AUDIO
    ISRC GAJPN9100022
    INDEX 00 35:44:61
    INDEX 01 35:46:60
  TRACK 24 AUDIO
    ISRC GAJPN9100023
    INDEX 00 37:28:59
    INDEX 01 37:30:58
  TRACK 25 AUDIO
    ISRC GAJPN9100024
    INDEX 00 40:07:43
    INDEX 01 40:09:42
  TRACK 26 AUDIO
    ISRC GAJPN9100025
    INDEX 00 41:20:73
    INDEX 01 41:22:72
  TRACK 27 AUDIO
    ISRC GAJPN9100026
    INDEX 00 42:12:32
    INDEX 01 42:14:31
  TRACK 28 AUDIO
    ISRC GAJPN9100027
    INDEX 00 42:43:57
    INDEX 01 42:45:56
  TRACK 29 AUDIO
    ISRC GAJPN9100028
    INDEX 00 43:34:39
    INDEX 01 43:36:38
  TRACK 30 AUDIO
    ISRC GAJPN9100029
    INDEX 00 44:31:54
    INDEX 01 44:33:53
  TRACK 31 AUDIO
    ISRC GAJPN9100030
    INDEX 00 45:19:06
    INDEX 01 45:21:05
  TRACK 32 AUDIO
    ISRC GAJPN9100031
    INDEX 00 46:22:15
    INDEX 01 46:24:14
  TRACK 33 AUDIO
    ISRC GAJPN9100032
    INDEX 00 47:34:08
    INDEX 01 47:36:07
  TRACK 34 AUDIO
    ISRC GAJPN9100033
    INDEX 00 48:26:34
    INDEX 01 48:28:33
  TRACK 35 AUDIO
    ISRC GAJPN9100034
    INDEX 00 48:51:55
    INDEX 01 48:53:54
  TRACK 36 AUDIO
    ISRC GAJPN9100035
    INDEX 00 49:34:40
    INDEX 01 49:36:39
  TRACK 37 AUDIO
    ISRC GAJPN9100036
    INDEX 00 50:18:52
    INDEX 01 50:20:51
  TRACK 38 AUDIO
    ISRC GAJPN9100037
    INDEX 00 50:41:63
    INDEX 01 50:43:62
  TRACK 39 AUDIO
    ISRC GAJPN9100038
    INDEX 00 51:03:41
    INDEX 01 51:05:40
  TRACK 40 AUDIO
    ISRC GAJPN9100039
    INDEX 00 51:45:38
    INDEX 01 51:47:37
  TRACK 41 AUDIO
    ISRC GAJPN9100040
    INDEX 00 52:47:70
    INDEX 01 52:49:69
  TRACK 42 AUDIO
    ISRC GAJPN9100041
    INDEX 00 53:38:52
    INDEX 01 53:40:51
  TRACK 43 AUDIO
    ISRC GAJPN9100042
    INDEX 00 54:04:15
    INDEX 01 54:06:14
  TRACK 44 AUDIO
    ISRC GAJPN9100043
    INDEX 00 54:24:17
    INDEX 01 54:26:16
  TRACK 45 AUDIO
    ISRC GAJPN9100044
    INDEX 00 54:50:21
    INDEX 01 54:52:20
